<svg width="1128" height="902" viewBox="0 0 1128 902" fill="none" xmlns="http://www.w3.org/2000/svg">
<path d="M202.894 483.57H178.334V901H202.894V483.57Z" fill="#FFBE21"/>
<path d="M202.904 489.31H178.334" stroke="#A15842" stroke-width="4" stroke-miterlimit="10"/>
<path d="M66.8844 817.24C69.3723 810.105 74.0184 803.921 80.1786 799.545C86.3389 795.169 93.7081 792.818 101.264 792.818C108.821 792.818 116.19 795.169 122.35 799.545C128.51 803.921 133.157 810.105 135.644 817.24C138.019 810.428 142.363 804.475 148.126 800.136C153.89 795.798 160.812 793.269 168.014 792.87C164.799 787.139 160.969 781.774 156.594 776.87L143.374 762C139.264 757.38 136.676 751.608 135.96 745.466C135.245 739.324 136.437 733.111 139.374 727.67L150.594 706.82C147.444 709.99 129.234 727.04 101.594 727.04C73.9544 727.04 55.7444 709.99 52.5944 706.82H52.5444L63.7744 727.67C66.6991 733.122 67.8727 739.343 67.1355 745.486C66.3983 751.628 63.7861 757.395 59.6544 762L46.4444 776.81C42.0613 781.714 38.2222 787.079 34.9944 792.81C42.1199 793.306 48.9422 795.887 54.6123 800.231C60.2825 804.574 64.5502 810.489 66.8844 817.24Z" fill="#4756DF"/>
<path d="M170.024 838.31C162.466 838.311 155.095 840.665 148.935 845.044C142.774 849.423 138.129 855.612 135.644 862.75C133.161 855.61 128.517 849.421 122.356 845.041C116.195 840.66 108.823 838.307 101.264 838.307C93.7051 838.307 86.3335 840.66 80.1726 845.041C74.0118 849.421 69.3675 855.61 66.8843 862.75C63.8774 854.123 57.7388 846.941 49.6855 842.627C41.6321 838.313 32.2519 837.183 23.4043 839.46C23.9123 862.537 33.2123 884.549 49.4043 901H153.594C169.754 884.584 179.051 862.628 179.594 839.6C176.476 838.745 173.258 838.311 170.024 838.31Z" fill="#4756DF"/>
<path d="M101.514 727.08C129.154 727.08 147.364 710.03 150.514 706.86H52.5144C55.6644 710 73.8744 727.08 101.514 727.08Z" fill="#30242A"/>
<path d="M66.8843 862.75C69.3675 855.61 74.0118 849.421 80.1726 845.041C86.3335 840.661 93.7052 838.307 101.264 838.307C108.824 838.307 116.195 840.661 122.356 845.041C128.517 849.421 133.161 855.61 135.644 862.75C138.676 854.032 144.907 846.79 153.076 842.492C161.245 838.195 170.742 837.161 179.644 839.6C180.055 823.262 176.044 807.116 168.034 792.87C160.832 793.268 153.909 795.798 148.146 800.136C142.383 804.475 138.039 810.428 135.664 817.24C133.176 810.105 128.53 803.921 122.37 799.545C116.21 795.169 108.841 792.818 101.284 792.818C93.728 792.818 86.3588 795.169 80.1986 799.545C74.0383 803.921 69.3922 810.105 66.9043 817.24C64.5557 810.506 60.2817 804.61 54.6127 800.283C48.9437 795.956 42.1291 793.389 35.0143 792.9C27.0406 807.098 23.0371 823.181 23.4243 839.46C32.2719 837.183 41.6521 838.313 49.7055 842.627C57.7588 846.941 63.8974 854.123 66.9043 862.75H66.8843Z" fill="#3EC1F3"/>
<path d="M108.774 724.22C110.774 711.98 119.864 663.46 142.724 637.09" stroke="#30242A" stroke-width="4" stroke-miterlimit="10" stroke-linecap="round"/>
<path d="M98.2243 724.57C98.0743 710.67 96.6443 642.42 83.0743 601.7" stroke="#30242A" stroke-width="4" stroke-miterlimit="10" stroke-linecap="round"/>
<path d="M158.37 676.814C178.414 667.995 193.054 657.19 191.07 652.681C189.085 648.172 171.229 651.666 151.185 660.485C131.141 669.305 116.501 680.11 118.485 684.619C120.469 689.128 138.326 685.634 158.37 676.814Z" fill="#30242A"/>
<path d="M158.358 552.749C165.564 543.007 168.652 533.073 165.255 530.56C161.859 528.048 153.264 533.908 146.058 543.65C138.852 553.392 135.764 563.326 139.161 565.838C142.557 568.351 151.152 562.49 158.358 552.749Z" fill="#30242A"/>
<path d="M49.8391 683.74C75.9688 679.788 96.5854 672.844 95.8875 668.23C95.1897 663.615 73.4417 663.078 47.312 667.03C21.1823 670.982 0.565723 677.926 1.26358 682.54C1.96143 687.154 23.7095 687.692 49.8391 683.74Z" fill="#30242A"/>
<path d="M31.5843 615.58V615.65C35.445 617.809 38.3569 621.336 39.7458 625.536C41.1347 629.735 40.8999 634.303 39.0875 638.338C37.2752 642.373 34.0169 645.583 29.9551 647.334C25.8932 649.086 21.3226 649.252 17.1443 647.8V647.86C39.0443 657.7 60.0543 658.45 64.0543 649.54C68.0543 640.63 53.4943 625.42 31.5843 615.58Z" fill="#FF7235"/>
<path d="M96.3344 544.26C91.6744 543.05 85.6144 550.1 81.1844 561.01C75.8544 547.76 68.1244 538.89 62.9144 540.61C57.7044 542.33 56.7744 554.05 60.3844 567.87C50.3244 561.75 41.2644 559.69 38.2344 563.44C34.3744 568.22 41.8144 580.62 54.8544 591.15C58.5643 594.172 62.5559 596.831 66.7744 599.09C67.4935 596.234 68.9147 593.602 70.9091 591.435C72.9035 589.267 75.4078 587.633 78.1945 586.679C80.9812 585.725 83.9621 585.483 86.8663 585.974C89.7705 586.465 92.506 587.673 94.8244 589.49C96.7789 585.283 98.3389 580.905 99.4844 576.41C103.694 560.2 102.284 545.8 96.3344 544.26Z" fill="#FF7235"/>
<path d="M197.994 617.87C196.554 613.27 187.364 611.87 175.764 613.87C184.184 602.34 187.624 591.09 183.414 587.58C179.204 584.07 168.754 589.48 158.934 599.85C158.814 588.07 155.764 579.29 150.984 578.7C144.894 577.95 138.294 590.83 136.254 607.45C135.65 612.202 135.502 617 135.814 621.78C138.62 620.876 141.607 620.688 144.504 621.232C147.401 621.777 150.115 623.037 152.401 624.899C154.687 626.76 156.471 629.163 157.591 631.89C158.711 634.616 159.131 637.58 158.814 640.51C163.42 639.927 167.962 638.923 172.384 637.51C188.354 632.54 199.824 623.73 197.994 617.87Z" fill="#FF7235"/>
<path d="M152.534 625C150.247 623.093 147.515 621.794 144.592 621.226C141.669 620.658 138.649 620.838 135.814 621.75C136.384 629.66 138.384 635.75 141.394 637.96C144.204 640.56 150.704 641.43 158.794 640.48C159.11 637.584 158.703 634.654 157.611 631.953C156.518 629.252 154.774 626.863 152.534 625Z" fill="#30242A"/>
<path d="M78.3743 586.62C75.5467 587.553 73.0008 589.185 70.9728 591.365C68.9448 593.545 67.5006 596.202 66.7743 599.09C73.7743 602.79 79.9943 604.29 83.4943 602.93C87.1843 601.93 91.3543 596.86 94.8243 589.49C92.5323 587.691 89.8305 586.487 86.9602 585.987C84.0898 585.486 81.1401 585.703 78.3743 586.62Z" fill="#30242A"/>
<path d="M33.5342 645.27C31.6538 644.221 30.2357 642.505 29.5608 640.46C28.8859 638.416 29.0035 636.192 29.8902 634.23C30.7769 632.268 32.368 630.711 34.3485 629.866C36.3291 629.021 38.5545 628.951 40.5842 629.67C40.3494 626.777 39.4055 623.986 37.8358 621.544C36.266 619.102 34.1189 617.085 31.5842 615.67L17.1143 647.8C19.8491 648.755 22.7767 649.024 25.6397 648.582C28.5028 648.141 31.2136 647.004 33.5342 645.27Z" fill="#F5EBDD"/>
<path d="M29.8543 634.24C28.9821 636.202 28.8762 638.419 29.5573 640.455C30.2384 642.491 31.6572 644.198 33.5343 645.24C35.9378 643.453 37.8464 641.082 39.0799 638.353C40.3133 635.624 40.8311 632.625 40.5843 629.64C38.5452 628.914 36.3072 628.984 34.3178 629.837C32.3284 630.69 30.7343 632.262 29.8543 634.24Z" fill="#4856DF"/>
<path d="M690.714 650.38H436.384L440.684 633.32H552.324L594.904 466.8C600.705 444.118 613.892 424.012 632.384 409.653C650.876 395.295 673.622 387.501 697.034 387.5C754.324 387.5 796.244 441.5 782.034 497L755.724 599.89C752.032 614.329 743.638 627.128 731.868 636.27C720.097 645.412 705.618 650.376 690.714 650.38Z" fill="#FFB7D5"/>
<path d="M438.354 807.97V826.03H600.444V807.97H438.354Z" fill="#A15842"/>
<path d="M627.144 891.3L584.984 640.35H453.804L411.644 891.3C411.445 892.494 411.509 893.716 411.83 894.883C412.152 896.05 412.724 897.132 413.506 898.056C414.288 898.979 415.262 899.72 416.36 900.229C417.459 900.737 418.654 901.001 419.864 901C421.766 900.998 423.609 900.347 425.09 899.154C426.57 897.961 427.599 896.298 428.004 894.44L483.224 640.35H555.604L610.804 894.44C611.208 896.298 612.236 897.963 613.717 899.156C615.198 900.349 617.042 901 618.944 901C620.153 900.998 621.346 900.732 622.442 900.223C623.537 899.713 624.509 898.971 625.289 898.048C626.069 897.125 626.639 896.044 626.96 894.878C627.28 893.713 627.343 892.492 627.144 891.3Z" fill="#A15842"/>
<path d="M572.634 807.97V826.03H734.724V807.97H572.634Z" fill="#FFBE21"/>
<path d="M761.424 891.3L719.224 640.35H588.094L545.934 891.3C545.735 892.494 545.799 893.716 546.12 894.883C546.442 896.05 547.014 897.132 547.796 898.056C548.578 898.979 549.552 899.72 550.65 900.229C551.749 900.737 552.944 901.001 554.154 901C556.055 901 557.898 900.349 559.377 899.155C560.856 897.962 561.882 896.298 562.284 894.44L617.484 640.35H689.874L745.074 894.44C745.479 896.3 746.508 897.966 747.991 899.159C749.474 900.353 751.321 901.002 753.224 901C754.433 900.998 755.626 900.732 756.722 900.223C757.817 899.713 758.789 898.971 759.569 898.048C760.349 897.125 760.919 896.044 761.24 894.878C761.56 893.713 761.623 892.492 761.424 891.3Z" fill="#FFBE21"/>
<path d="M628.934 599.89L645.014 537H538.444C517.546 537.001 497.242 543.957 480.735 556.773C464.227 569.588 452.455 587.534 447.274 607.78L436.384 650.38H563.914C578.82 650.378 593.301 645.415 605.074 636.273C616.846 627.131 625.241 614.331 628.934 599.89Z" fill="#FFB7D5"/>
<path d="M443.314 631.65H578.614" stroke="#A15842" stroke-width="4" stroke-linecap="round" stroke-linejoin="round"/>
<path d="M552.804 631.02L576.514 538.32" stroke="#A15842" stroke-width="4" stroke-linecap="round" stroke-linejoin="round"/>
<path d="M770.224 534.85H706.224" stroke="#A15842" stroke-width="4" stroke-linecap="round" stroke-linejoin="round"/>
<path d="M782.224 489.85H700.224" stroke="#A15842" stroke-width="4" stroke-linecap="round" stroke-linejoin="round"/>
<path d="M483.534 469.53C483.534 469.53 403.304 491.38 369.224 508.43C313.034 536.52 313.224 555.06 278.964 658.85C247.334 754.77 243.854 801.26 200.224 803.1C166.914 804.5 155.994 815.4 150.594 830.34L282.404 892.88C283.915 893.595 285.642 893.705 287.232 893.189C288.821 892.672 290.153 891.567 290.954 890.1C291.771 888.601 291.969 886.842 291.508 885.198C291.047 883.554 289.962 882.156 288.484 881.3L285.714 879.7C297.964 864.86 321.594 833.24 345.154 785.21L360.154 792.21C360.154 792.21 384.384 760.72 388.224 725C393.224 678.87 390.224 647.78 411.294 629.73L656.994 469.49L483.534 469.53Z" fill="#FF7235"/>
<path d="M187.274 810.51C189.884 805.08 204.384 772 212.724 776C223.574 781.2 195.414 814.41 195.414 814.41L187.274 810.51Z" fill="#30242A"/>
<path d="M150.584 830.81L282.394 893.34C283.92 894.068 285.669 894.177 287.273 893.644C288.878 893.11 290.214 891.977 291 890.48C291.787 888.983 291.963 887.24 291.492 885.616C291.021 883.992 289.94 882.614 288.474 881.77L285.704 880.17L285.984 879.83L195.384 837.06C196.742 833.299 197.694 829.403 198.224 825.44C211.784 827.79 239.224 830.32 239.364 819.01C239.514 808.47 209.544 812.7 198.594 815.68C198.358 811.629 197.571 807.629 196.254 803.79C166.044 805.87 155.764 816.47 150.584 830.81Z" fill="#30242A"/>
<path d="M369.224 508.43C362.914 511.58 357.324 514.61 352.314 517.65L344.624 542.28L374.224 521.43L401.514 543.19L391.454 513.36L422.364 499.2L398.474 496.2C388.514 499.754 378.75 503.836 369.224 508.43Z" fill="#FFB7D5"/>
<path d="M456.434 495.61L454.434 508.64L467.474 503.63L456.434 495.61Z" fill="#FFB7D5"/>
<path d="M381.224 560.79L362.174 585.86L335.094 572.83L351.134 599.9L326.064 620.96L358.154 616.95L369.194 654.06L380.224 616.95L415.324 606.92L381.224 592.88V560.79Z" fill="#FFB7D5"/>
<path d="M274.124 752.21L276.464 745.53L308.464 743.83L282.464 726.13L294.044 698.4L267.854 715.86L262.854 710.46C258.854 723.63 255.314 735.36 251.854 745.67H252.014C252.394 744.54 252.774 743.4 253.154 742.24L274.124 752.21Z" fill="#FFB7D5"/>
<path d="M274.124 752.21L253.124 742.28C252.744 743.44 252.364 744.58 251.984 745.71C239.294 783.51 227.734 802.41 200.244 803.57C198.894 803.57 197.594 803.7 196.314 803.79C197.631 807.629 198.418 811.629 198.654 815.68C209.654 812.68 239.574 808.47 239.424 819.01C239.264 830.32 211.844 827.79 198.284 825.44C197.744 829.404 196.782 833.3 195.414 837.06L286.014 879.83C298.334 864.83 321.764 833.37 345.144 785.74L274.124 752.21Z" fill="#EAA58B"/>
<path d="M354.144 676.12L351.144 703.2L323.064 702.2L347.134 720.26L338.134 752.35L362.224 731.28L383.874 745.72C384.474 743.807 385.024 741.87 385.524 739.91L377.224 719.24L390.084 705.15C390.294 702.53 390.494 699.95 390.684 697.44L368.224 701.19L354.144 676.12Z" fill="#FFB7D5"/>
<path d="M291.594 619.83C289.064 627.65 286.344 636.14 283.344 645.37L310.024 647L291.594 619.83Z" fill="#FFB7D5"/>
<path d="M385.804 864.13C386.224 858.13 387.534 822.03 396.754 822.68C408.754 823.52 394.804 864.76 394.804 864.76L385.804 864.13Z" fill="#30242A"/>
<path d="M607.894 471C607.894 471 507.604 489.6 452.444 512.66C396.754 535.95 397.294 577.31 407.314 689.66C416.314 790.24 432.394 839.08 399.314 854.12C368.974 867.92 358.434 885.22 359.874 901.04H509.224C510.066 901.04 510.9 900.874 511.677 900.552C512.455 900.23 513.162 899.758 513.757 899.163C514.352 898.567 514.824 897.861 515.146 897.083C515.469 896.305 515.634 895.472 515.634 894.63C515.634 892.93 514.959 891.3 513.757 890.097C512.555 888.895 510.924 888.22 509.224 888.22H506.704C511.414 872.81 518.244 842.73 519.184 792.95H537.704C537.704 792.95 547.224 748.95 536.704 709.71C525.704 668.6 515.644 661.58 509.634 633.5H599.504C668.134 633.5 719.504 570.02 704.574 503.04C699.914 482.11 693.154 471.04 693.154 471.04L607.894 471Z" fill="#FF7235"/>
<path d="M545.714 529.7L527.304 552.86L498.634 543.01L515.624 570.82L493.564 600.91L522.644 588.87L538.854 618.75L540.694 585.86L568.774 579.85L544.714 564.8L545.714 529.7Z" fill="#FFB7D5"/>
<path d="M505.654 708.48L522.654 736.29L500.594 766.38L529.674 754.38L540.454 774.25C542.034 758.81 542.814 735.97 537.774 714.04L534.334 718.37L505.654 708.48Z" fill="#FFB7D5"/>
<path d="M430.674 792.91L429.384 777.41L461.944 764.85L431.124 758.46L434.524 724.63L414.524 750.8L413.924 750.55C415.844 766.7 417.524 780.81 418.464 793.02V792.91H430.674Z" fill="#FFB7D5"/>
<path d="M509.224 888.18H506.704C511.414 872.77 518.244 842.69 519.184 792.91H418.434V793C418.514 794 418.584 795 418.654 796C418.654 796.09 418.654 796.19 418.654 796.28C420.744 827.53 417.334 845.81 399.274 854.02C368.934 867.82 358.394 885.12 359.834 900.94H509.224C510.924 900.94 512.555 900.265 513.757 899.062C514.959 897.86 515.634 896.23 515.634 894.53C515.634 892.83 514.959 891.199 513.757 889.997C512.555 888.795 510.924 888.12 509.224 888.12V888.18Z" fill="#EAA58B"/>
<path d="M642.944 473.59L596.874 477.67L601.674 496.19L572.204 511.91L608.914 516.82L621.334 544.33L634.104 515.84L671.444 509.94L639.014 493.24L642.944 473.59Z" fill="#FFB7D5"/>
<path d="M423.364 603.91L434.364 568.81L466.454 573.81L441.384 551.75L459.384 530.69L426.294 542.69L421.004 533.62C412.494 543.26 407.354 555.23 404.604 570.62L410.244 570.8L423.364 603.91Z" fill="#FFB7D5"/>
<path d="M509.224 493.8C502.454 495.68 495.714 497.65 489.134 499.68L515.644 517.68L509.224 493.8Z" fill="#FFB7D5"/>
<path d="M465.484 656.06L451.444 626.98L444.424 659.07L418.354 657.07L442.414 678.13L427.374 713.23L453.484 688.89L475.124 713.84L468.494 676.12L490.554 647.04L465.484 656.06Z" fill="#FFB7D5"/>
<path d="M405.954 876.45C419.214 872.79 445.094 863.37 440.414 853.08C436.054 843.48 410.754 860.08 402.124 867.47C399.946 863.473 397.163 859.837 393.874 856.69C367.694 870.02 358.504 886.16 359.874 901H509.224C510.924 901 512.555 900.325 513.757 899.123C514.959 897.921 515.634 896.29 515.634 894.59C515.634 892.89 514.959 891.26 513.757 890.058C512.555 888.855 510.924 888.18 509.224 888.18H408.324C407.949 884.198 407.155 880.266 405.954 876.45Z" fill="#30242A"/>
<path d="M509.224 635.71L483.404 635.35" stroke="#A15842" stroke-width="4" stroke-miterlimit="10" stroke-linecap="round"/>
<path d="M528.424 489.42C501.674 496.24 473.084 504.61 451.424 513.65C405.224 533 397.734 564.76 402.224 639.24" stroke="#A15842" stroke-width="4" stroke-miterlimit="10" stroke-linecap="round"/>
<path d="M867.904 483.57H843.344V901H867.904V483.57Z" fill="#FFBE21"/>
<path d="M867.904 489.31H843.344" stroke="#A15842" stroke-width="4" stroke-miterlimit="10"/>
<path d="M511.614 169.68C497.614 167.68 465.544 182.73 464.484 212.48C463.424 242.23 489.984 251.79 494.234 253.92L555.864 244.35L560.114 176.35L511.614 169.68Z" fill="#A15842"/>
<path d="M620.494 95.8C646.949 95.8 668.394 74.3544 668.394 47.9C668.394 21.4456 646.949 0 620.494 0C594.04 0 572.594 21.4456 572.594 47.9C572.594 74.3544 594.04 95.8 620.494 95.8Z" fill="#A15842"/>
<path d="M589.424 80.8399C592.344 82.1899 567.754 23.8399 555.204 32.9399C543.394 41.5299 574.594 73.9999 589.424 80.8399Z" fill="#30242A"/>
<path d="M590.784 84.41C593.464 87.61 656.204 65.66 647.524 53C639.224 40.82 588.104 81.2 590.784 84.41Z" fill="#30242A"/>
<path d="M674.074 244.89C674.074 244.89 716.194 209.79 689.074 170.68C671.814 145.75 624.884 155.68 624.884 155.68C626.024 141.99 629.744 102.55 600.084 80.88C570.424 59.21 532.794 70.62 519.084 87.72C505.374 104.82 508.824 136.77 504.264 159.58C499.704 182.39 502.744 197.9 516.804 205.2C529.594 211.84 544.644 207.83 544.644 207.83L543.044 231.9C543.044 231.9 514.044 232.99 496.274 239.42C453.454 254.92 378.224 361.22 378.224 361.22C331.094 359.22 286.964 357.22 286.964 357.22L310.034 425.42C310.034 425.42 368.194 444.47 410.314 433.42C453.044 422.23 493.554 362.22 493.554 362.22L507.554 402.33L483.484 469.52H693.084L657.984 407.34C664.054 352.2 674.074 244.89 674.074 244.89Z" fill="#EAA58B"/>
<path d="M606.724 229.4L551.724 329.13L529.224 232.9C519.334 233.9 506.154 235.84 496.374 239.38C453.454 254.92 378.224 361.22 378.224 361.22C331.094 359.22 286.964 357.22 286.964 357.22L310.034 425.42C310.034 425.42 368.194 444.47 410.314 433.42C453.044 422.23 493.554 362.22 493.554 362.22L507.554 402.33L483.484 469.52H693.084L657.984 407.35C663.984 352.19 673.984 244.88 673.984 244.88C664.699 239.227 654.531 235.171 643.904 232.88C631.934 230.18 618.774 231.79 606.724 229.4Z" fill="#4756DF"/>
<path d="M321.894 462.51H495.574L449.084 317.79C447.924 314.115 445.621 310.905 442.512 308.626C439.403 306.348 435.649 305.12 431.794 305.12H285.014C282.162 305.118 279.35 305.789 276.806 307.079C274.262 308.368 272.058 310.24 270.374 312.541C268.689 314.843 267.571 317.509 267.111 320.324C266.651 323.138 266.861 326.022 267.724 328.74L307.364 451.88C308.344 454.965 310.28 457.659 312.892 459.57C315.504 461.481 318.657 462.511 321.894 462.51Z" fill="#30242A"/>
<path d="M347.774 381.54C352.384 375.24 373.294 391.88 374.834 393.25C375.634 391.88 386.524 375.25 394.504 381.54C401.434 387 386.204 411.39 382.154 417.61C381.985 417.798 381.777 417.949 381.545 418.052C381.314 418.155 381.063 418.209 380.809 418.209C380.556 418.209 380.305 418.155 380.073 418.052C379.841 417.949 379.634 417.798 379.464 417.61C372.074 411.39 343.774 387 347.774 381.54Z" fill="#A15842"/>
<path d="M373.111 385.758C374.857 385.214 374.923 380.443 373.259 375.102C371.595 369.76 368.832 365.871 367.087 366.414C365.341 366.958 365.275 371.729 366.939 377.07C368.602 382.412 371.366 386.301 373.111 385.758Z" fill="#A15842"/>
<path d="M596.424 448.47C596.927 450.083 597.044 451.792 596.765 453.459C596.486 455.126 595.82 456.704 594.82 458.066C593.82 459.428 592.514 460.536 591.007 461.301C589.5 462.066 587.834 462.467 586.144 462.47H321.894C318.657 462.471 315.504 461.441 312.892 459.53C310.279 457.619 308.343 454.925 307.364 451.84L306.284 448.43L596.424 448.47Z" fill="#30242A"/>
<path d="M910.224 462.51H136.014V487.58H910.224V462.51Z" fill="#FFBE21"/>
<path d="M755.714 599.89L771.794 537H677.994C657.097 537.001 636.795 543.958 620.289 556.774C603.783 569.589 592.013 587.535 586.834 607.78L575.934 650.38H690.684C705.591 650.379 720.074 645.416 731.848 636.274C743.623 627.132 752.019 614.332 755.714 599.89Z" fill="#FFB7D5"/>
<path d="M578.154 633.89L574.444 649.57" stroke="#A15842" stroke-width="4" stroke-linecap="round" stroke-linejoin="round"/>
<path d="M278.604 360.83C266.934 366.66 261.104 376.38 261.104 383.19C261.104 393.13 271.224 395 271.224 395C271.224 395 263.674 406.87 276.804 412.44C276.804 412.44 276.804 424.66 289.034 424.66C289.034 424.66 287.414 434.19 300.174 435.09C312.934 435.99 326.064 429.33 327.174 425.02C328.444 419.93 325.014 415.67 315.754 414.32C315.754 414.32 328.254 408.48 326.274 401.11C324.294 393.74 315.844 393.91 315.844 393.91C315.844 393.91 323.934 389.06 319.614 381.91C315.294 374.76 307.034 377.24 307.034 377.24C307.034 377.24 309.194 372.24 305.414 368.43C300.914 363.93 281.564 369.61 281.564 369.61L278.604 360.83Z" fill="#EAA58A"/>
<path d="M289.124 425.13C299.655 422.605 309.871 418.916 319.584 414.13" stroke="#A15842" stroke-width="4" stroke-miterlimit="10" stroke-linecap="round"/>
<path d="M276.774 412.38C291.374 408.377 305.314 402.269 318.154 394.25" stroke="#A15842" stroke-width="4" stroke-miterlimit="10" stroke-linecap="round"/>
<path d="M270.224 396.42C283.754 392.417 296.537 386.225 308.064 378.09" stroke="#A15842" stroke-width="4" stroke-miterlimit="10" stroke-linecap="round"/>
<path d="M689.124 170.68C671.864 145.75 624.934 155.68 624.934 155.68C626.074 141.99 629.794 102.55 600.134 80.88C570.474 59.21 532.844 70.62 519.134 87.72C513.554 94.72 510.824 104.14 509.234 114.42C518.334 115.95 531.684 112.82 531.684 112.82C549.934 133.35 566.284 136.61 566.284 136.61C579.054 123.84 601.454 124.26 605.094 143.61C608.874 163.7 576.784 172.73 576.784 172.73C576.784 172.73 573.784 208.83 589.784 221.87C594.695 225.762 600.501 228.365 606.674 229.44C618.674 231.83 631.884 230.22 643.944 232.9C654.571 235.191 664.739 239.247 674.024 244.9C677.688 241.672 681.037 238.102 684.024 234.24C694.544 220.9 707.124 196.68 689.124 170.68Z" fill="#A15842"/>
<path d="M550.724 105.5C544.724 110.5 537.724 113.5 529.664 115.5" stroke="#EAA58B" stroke-width="4" stroke-miterlimit="10" stroke-linecap="round"/>
<path d="M544.314 210.08C548.971 208.527 553.463 206.517 557.724 204.08" stroke="#A15842" stroke-width="4" stroke-miterlimit="10" stroke-linecap="round"/>
<path d="M578.014 152.56L587.134 146.86" stroke="#A15842" stroke-width="4" stroke-miterlimit="10" stroke-linecap="round"/>
<path d="M525.684 179.33C527.574 180.5 534.684 181.41 537.504 175.98" stroke="#A15842" stroke-width="4" stroke-miterlimit="10" stroke-linecap="round"/>
<path d="M544.264 153.67C546.153 153.67 547.684 152.139 547.684 150.25C547.684 148.361 546.153 146.83 544.264 146.83C542.376 146.83 540.844 148.361 540.844 150.25C540.844 152.139 542.376 153.67 544.264 153.67Z" fill="#30242A"/>
<path d="M515.914 149.14C517.803 149.14 519.334 147.609 519.334 145.72C519.334 143.831 517.803 142.3 515.914 142.3C514.026 142.3 512.494 143.831 512.494 145.72C512.494 147.609 514.026 149.14 515.914 149.14Z" fill="#30242A"/>
<path d="M525.544 158.93C524.864 161.08 524.274 163.42 524.664 164.2C525.2 165.188 526.014 165.998 527.004 166.53" stroke="#A15842" stroke-width="4" stroke-miterlimit="10" stroke-linecap="round"/>
<path d="M582.304 186.07C588.921 186.07 594.284 180.706 594.284 174.09C594.284 167.474 588.921 162.11 582.304 162.11C575.688 162.11 570.324 167.474 570.324 174.09C570.324 180.706 575.688 186.07 582.304 186.07Z" fill="#F5EBDD"/>
<path d="M524.672 147.643C526.745 136.99 520.651 126.842 511.061 124.976C501.471 123.11 492.016 130.233 489.944 140.886C487.871 151.539 493.965 161.687 503.555 163.553C513.145 165.419 522.6 158.296 524.672 147.643Z" stroke="#30242A" stroke-width="4" stroke-miterlimit="10" stroke-linecap="round"/>
<path d="M568.123 152.971C570.195 142.318 564.101 132.17 554.511 130.304C544.921 128.438 535.466 135.561 533.394 146.214C531.321 156.866 537.415 167.015 547.005 168.88C556.595 170.746 566.05 163.623 568.123 152.971Z" stroke="#30242A" stroke-width="4" stroke-miterlimit="10" stroke-linecap="round"/>
<path d="M525.494 146.03L532.404 146.77" stroke="#30242A" stroke-width="4" stroke-miterlimit="10" stroke-linecap="round"/>
<path d="M627.224 157L625.234 169.8" stroke="#30242A" stroke-width="4" stroke-miterlimit="10" stroke-linecap="round"/>
<path d="M482.534 336.15L492.214 364.32" stroke="#30242A" stroke-width="4" stroke-linecap="round" stroke-linejoin="round"/>
<path d="M533.674 400.33H508.224" stroke="#30242A" stroke-width="4" stroke-linecap="round" stroke-linejoin="round"/>
<path d="M553.734 328.13L561.754 367.24V403.34" stroke="#30242A" stroke-width="4" stroke-linecap="round" stroke-linejoin="round"/>
<path d="M500.394 238.51L515.624 272.97L497.574 270.97L561.754 367.24" stroke="#30242A" stroke-width="4" stroke-linecap="round" stroke-linejoin="round"/>
<path d="M648.784 234.41L622.934 270.97L647.004 268.96L558.744 347.18" stroke="#30242A" stroke-width="4" stroke-linecap="round" stroke-linejoin="round"/>
<path d="M662.224 357L642.994 330.14" stroke="#30242A" stroke-width="4" stroke-linecap="round" stroke-linejoin="round"/>
<path d="M684.474 456C674.004 452.51 655.214 445.77 643.884 439" stroke="#30242A" stroke-width="4" stroke-linecap="round" stroke-linejoin="round"/>
<path d="M395.674 207.17C406.538 207.17 415.344 198.364 415.344 187.5C415.344 176.637 406.538 167.83 395.674 167.83C384.811 167.83 376.004 176.637 376.004 187.5C376.004 198.364 384.811 207.17 395.674 207.17Z" fill="#FFB7D5"/>
<path d="M336.887 109.22L325.434 95.4112C323.672 93.2856 320.519 92.9915 318.394 94.7543L318.148 94.9586C316.022 96.7214 315.728 99.8735 317.491 101.999L328.943 115.808C330.706 117.934 333.858 118.228 335.983 116.465L336.23 116.261C338.355 114.498 338.649 111.346 336.887 109.22Z" fill="#4756DF"/>
<path d="M357.484 126L345.964 112.1L138.894 283.8C137.089 285.299 135.952 287.453 135.734 289.79C135.517 292.126 136.236 294.454 137.734 296.26L137.964 296.54C138.706 297.434 139.616 298.173 140.643 298.715C141.669 299.257 142.793 299.592 143.949 299.699C145.105 299.807 146.271 299.686 147.381 299.343C148.49 299 149.521 298.442 150.414 297.7L215.154 244V432.43H233.224V229L357.484 126Z" fill="#3EC1F3"/>
<path d="M324.114 130L329.884 137C331.894 139.429 333.421 142.219 334.384 145.22" stroke="#4756DF" stroke-width="4" stroke-miterlimit="10"/>
<path d="M224.184 248.17C237.202 248.17 247.754 237.617 247.754 224.6C247.754 211.583 237.202 201.03 224.184 201.03C211.167 201.03 200.614 211.583 200.614 224.6C200.614 237.617 211.167 248.17 224.184 248.17Z" fill="#4756DF"/>
<path d="M224.184 233.66C229.188 233.66 233.244 229.604 233.244 224.6C233.244 219.596 229.188 215.54 224.184 215.54C219.181 215.54 215.124 219.596 215.124 224.6C215.124 229.604 219.181 233.66 224.184 233.66Z" fill="#3EC1F3"/>
<path d="M411.824 176.33L381.674 201.25" stroke="#A15842" stroke-width="4" stroke-miterlimit="10"/>
<path d="M372.764 123.48C366.425 122.735 360.616 119.576 356.544 114.66L348.544 104.99C345.717 101.586 341.654 99.4432 337.248 99.0325C332.841 98.6219 328.452 99.977 325.044 102.8C323.358 104.198 321.964 105.915 320.941 107.853C319.918 109.79 319.287 111.91 319.084 114.091C318.88 116.273 319.109 118.473 319.756 120.566C320.403 122.659 321.456 124.604 322.854 126.29L330.854 135.99C334.908 140.892 336.923 147.164 336.484 153.51L334.484 182.75C333.493 197.057 337.125 211.304 344.844 223.39L347.404 227.39L443.334 147.82L439.894 144.59C429.453 134.767 416.132 128.558 401.894 126.88L372.764 123.48Z" fill="#3EC1F3"/>
<path d="M233.224 432.43H215.154L188.444 439.71C183.443 441.074 179.03 444.046 175.884 448.166C172.738 452.286 171.034 457.326 171.034 462.51H277.334C277.334 457.325 275.629 452.283 272.481 448.163C269.333 444.043 264.917 441.073 259.914 439.71L233.224 432.43Z" fill="#3EC1F3"/>
<path d="M425.134 133.67L337.344 206.23" stroke="#4756DF" stroke-width="4" stroke-miterlimit="10" stroke-linecap="round"/>
<path d="M214.714 430.36H233.224" stroke="#4756DF" stroke-width="4" stroke-miterlimit="10" stroke-linecap="round"/>
<path d="M174.544 450.01H273.224" stroke="#4756DF" stroke-width="4" stroke-miterlimit="10" stroke-linecap="round"/>
<path d="M743.284 720.49C745.284 703.49 744.284 665.33 722.224 636.25C700.164 607.17 730.224 619.25 739.224 627.25C753.624 640.05 766.304 652.32 777.334 693.44L743.284 720.49Z" fill="#30242A"/>
<path d="M1009.65 901H1127.38V897.15C1127.38 891.723 1125.22 886.519 1121.39 882.682C1117.55 878.845 1112.34 876.69 1106.91 876.69H1009.04L1009.65 901Z" fill="#A15842"/>
<path d="M722.464 788.6L747.294 901H793.434V894C793.434 889.487 791.645 885.158 788.458 881.961C785.271 878.765 780.948 876.963 776.434 876.95C776.434 876.95 799.494 859.66 813.534 842.61C813.534 842.61 837.604 871.94 871.704 866.92L874.174 878.92C875.459 885.148 878.85 890.744 883.777 894.765C888.703 898.787 894.865 900.989 901.224 901H1013.05C1062.65 901 1087.05 893.43 1088.45 865.19C1088.5 864.113 1088.32 863.038 1087.94 862.03C1087.56 861.022 1086.97 860.102 1086.23 859.325C1085.48 858.548 1084.58 857.93 1083.59 857.508C1082.6 857.086 1081.53 856.869 1080.45 856.87H1049.23C1047.95 856.871 1046.68 856.583 1045.51 856.028C1044.35 855.472 1043.33 854.663 1042.52 853.66L1029.23 837.17C1025.29 832.29 1020.04 828.644 1014.09 826.664C1008.14 824.684 1001.74 824.453 995.664 826L968.934 832.83C968.934 832.83 921.574 764.77 878.674 717.5C837.674 672.37 760.554 667.5 730.174 726.28C720.407 745.516 717.679 767.564 722.464 788.6Z" fill="#A15842"/>
<path d="M1002.02 901V897.15C1002.02 894.462 1001.49 891.801 1000.47 889.318C999.437 886.835 997.929 884.579 996.028 882.679C994.127 880.779 991.871 879.272 989.387 878.245C986.904 877.217 984.242 876.689 981.554 876.69H967.924" stroke="#30242A" stroke-width="4" stroke-miterlimit="10"/>
<path d="M815.394 843.41C822.394 835.08 846.284 804.41 844.574 774.41C842.744 742.31 823.514 725.27 823.514 725.27" stroke="#30242A" stroke-width="4" stroke-miterlimit="10" stroke-linecap="round"/>
<path d="M865.634 824.54C865.634 824.54 866.914 848.27 869.484 865.99" stroke="#30242A" stroke-width="4" stroke-miterlimit="10" stroke-linecap="round"/>
<path d="M769.364 890.73V900" stroke="#30242A" stroke-width="4" stroke-miterlimit="10" stroke-linecap="round"/>
<path d="M780.394 890.73V900" stroke="#30242A" stroke-width="4" stroke-miterlimit="10" stroke-linecap="round"/>
<path d="M979.964 890.73V900" stroke="#30242A" stroke-width="4" stroke-miterlimit="10" stroke-linecap="round"/>
<path d="M990.994 890.73V900" stroke="#30242A" stroke-width="4" stroke-miterlimit="10" stroke-linecap="round"/>
<path d="M1020.57 863.65C1023.07 863.65 1025.08 861.631 1025.08 859.14C1025.08 856.649 1023.07 854.63 1020.57 854.63C1018.08 854.63 1016.06 856.649 1016.06 859.14C1016.06 861.631 1018.08 863.65 1020.57 863.65Z" fill="#30242A"/>
<path d="M995.964 825.91V825.79L968.894 832.79L995.624 825.96L995.964 825.91Z" fill="#30242A"/>
<path d="M929.344 877.14C921.504 881.14 910.424 888.97 911.344 900.83H954.884L964.034 886.4C965.53 884.04 967.597 882.096 970.045 880.748C972.492 879.4 975.24 878.692 978.034 878.69H980.944L995.864 826.21L995.644 825.98L968.914 832.81L943.324 865.59C939.557 870.409 934.787 874.35 929.344 877.14Z" fill="#30242A"/>
<path d="M865.754 742C865.754 742 853.644 783.92 892.754 799.75C912.584 807.75 929.054 801.68 940.484 793.75C923.214 770.75 900.364 741.47 878.664 717.55C873.223 711.564 867.11 706.225 860.444 701.64C854.524 709.7 848.044 729.64 865.754 742Z" fill="#EAA58B"/>
<path d="M765.854 772.4C774.995 772.4 782.404 764.99 782.404 755.85C782.404 746.71 774.995 739.3 765.854 739.3C756.714 739.3 749.304 746.71 749.304 755.85C749.304 764.99 756.714 772.4 765.854 772.4Z" fill="#EAA58B"/>
<path d="M1080.49 856.87H1074.49C1074.16 858.543 1074.21 860.269 1074.62 861.923C1075.04 863.577 1075.81 865.119 1076.89 866.438C1077.98 867.757 1079.33 868.82 1080.88 869.552C1082.42 870.284 1084.1 870.666 1085.8 870.67C1086.51 870.67 1087.21 870.603 1087.9 870.47C1088.21 868.724 1088.41 866.961 1088.49 865.19C1088.54 864.113 1088.36 863.038 1087.98 862.03C1087.6 861.022 1087.01 860.102 1086.27 859.325C1085.52 858.548 1084.62 857.93 1083.63 857.508C1082.64 857.086 1081.57 856.869 1080.49 856.87Z" fill="#30242A"/>
<path d="M1104.31 890.73V899.77" stroke="#30242A" stroke-width="4" stroke-miterlimit="10" stroke-linecap="round"/>
<path d="M1115.34 890.73V899.77" stroke="#30242A" stroke-width="4" stroke-miterlimit="10" stroke-linecap="round"/>
<path d="M1043.79 899.8C1068.31 897.33 1082.93 890.69 1088.24 876.56" stroke="#30242A" stroke-width="4" stroke-linecap="round" stroke-linejoin="round"/>
<path d="M643.994 373.67C631.654 372.565 619.246 372.428 606.884 373.26C589.204 374.71 565.434 379.34 555.884 383.96C546.334 388.58 509.764 404.89 519.614 410.36C528.614 415.36 547.494 407.84 547.494 407.84C547.494 407.84 528.654 425.16 525.414 432.41C522.174 439.66 532.884 443.73 532.884 443.73C535.704 456.11 548.324 450.79 548.324 450.79C556.274 467.7 599.224 431.06 599.224 431.06C609.443 432.122 619.761 431.687 629.854 429.77C629.854 429.77 635.294 432.82 644.024 437.06L643.994 373.67Z" fill="#EAA58A"/>
<path d="M751.294 458.5C831.524 420.39 715.224 278 674.074 244.89L651.014 338.16L680.094 378.27C667.354 376.07 655.174 374.56 643.994 373.67V437.06C669.454 449.44 722.954 472 751.294 458.5Z" fill="#4756DF"/>
<path d="M543.654 408.89C550.774 403 562.594 393.48 571.414 387.74" stroke="#A15842" stroke-width="4" stroke-miterlimit="10" stroke-linecap="round"/>
<path d="M581.134 401.81C560.644 415.08 541.974 432.81 532.734 442.09" stroke="#A15842" stroke-width="4" stroke-miterlimit="10" stroke-linecap="round"/>
<path d="M590.224 416.82C576.224 426.43 559.974 441 549.364 451" stroke="#A15842" stroke-width="4" stroke-miterlimit="10" stroke-linecap="round"/>
<path d="M830.924 411.43C832.441 411.433 833.894 412.036 834.966 413.108C836.038 414.18 836.642 415.634 836.644 417.15V418C836.642 419.516 836.038 420.969 834.966 422.042C833.894 423.114 832.441 423.717 830.924 423.72H801.454V411.43H830.924ZM830.924 403.43H794.534C794.392 403.43 794.251 403.458 794.119 403.513C793.987 403.568 793.868 403.648 793.767 403.75C793.667 403.851 793.587 403.971 793.534 404.104C793.48 404.236 793.453 404.377 793.454 404.52V430.67C793.454 430.956 793.568 431.231 793.771 431.434C793.973 431.636 794.248 431.75 794.534 431.75H830.924C832.729 431.75 834.515 431.394 836.182 430.703C837.848 430.011 839.362 428.998 840.637 427.721C841.911 426.444 842.921 424.928 843.609 423.26C844.296 421.591 844.648 419.804 844.644 418V417.12C844.644 413.481 843.199 409.991 840.626 407.418C838.053 404.845 834.563 403.4 830.924 403.4V403.43Z" fill="#3EC1F3"/>
<path d="M786.924 399.12C757.124 399.12 743.354 375.37 743.354 375.37L763.354 462.51H810.434L830.434 375.37C825.79 382.692 819.36 388.713 811.749 392.868C804.138 397.022 795.595 399.174 786.924 399.12Z" fill="#3EC1F3"/>
<path d="M786.924 399.12C795.605 399.184 804.16 397.038 811.782 392.883C819.405 388.728 825.844 382.701 830.494 375.37H743.354C743.354 375.37 757.124 399.12 786.924 399.12Z" fill="#30242A"/>
</svg>
